<?xml version="1.0" encoding="UTF-8"?>
<svg version="1.1" xmlns="http://www.w3.org/2000/svg" width="737" height="652">
<path d="M0 0 C3.5386994 1.65139305 4.81070153 2.71605229 7 6 C7.31895033 10.9622825 6.66892537 15.42714351 5.67578125 20.28125 C3.8900812 29.31456582 2.52543829 38.39132328 1.1875 47.5 C0.9295255 49.23979451 0.67121729 50.97953956 0.41259766 52.71923828 C-0.12386818 56.32988553 -0.6589162 59.94073841 -1.19287109 63.55175781 C-2.36597398 71.47883713 -3.55409482 79.40366249 -4.74310303 87.32836914 C-5.12374238 89.86661369 -5.50357533 92.40497796 -5.88330078 94.94335938 C-7.12495843 103.23473061 -8.38837944 111.52197042 -9.68676758 119.8046875 C-11.09875637 128.81497971 -12.36694075 137.81768162 -13.4375 146.875 C-17.33199937 178.98988822 -23.79409164 200.31312357 -44.25439453 225.18139648 C-47.42015171 229.03032015 -50.48239508 232.92229238 -53.4375 236.9375 C-57.66216781 242.65049114 -62.16439618 248.1074824 -66.70019531 253.57519531 C-71.79436665 259.72390131 -76.74709028 265.97141498 -81.65136719 272.27197266 C-83.55010826 274.70486355 -85.46244799 277.12694214 -87.37426758 279.54956055 C-88.77043736 281.32161308 -90.161404 283.09761898 -91.55078125 284.875 C-92.9948597 286.71752434 -94.44717405 288.5537308 -95.91796875 290.375 C-96.44003906 291.035 -96.96210938 291.695 -97.5 292.375 C-97.9228125 292.89835937 -98.345625 293.42171875 -98.78125 293.9609375 C-103.05740327 301.11527085 -103.34871339 307.00055476 -102.8125 315.125 C-102.76802734 316.06859375 -102.72355469 317.0121875 -102.67773438 317.984375 C-102.32211616 324.49965197 -101.47322472 330.87809456 -100.50610352 337.32763672 C-99.53781325 344.35369664 -98.9790999 351.43147102 -98.39819336 358.49902344 C-98.23607947 360.44821015 -98.05767858 362.3960205 -97.87890625 364.34375 C-97.7816626 365.48005859 -97.68441895 366.61636719 -97.58422852 367.78710938 C-96.90605825 371.51662075 -95.75181879 375.24818121 -93 378 C-85.28098794 378.7309251 -79.94411628 374.17534785 -74.15625 369.515625 C-73.06853533 368.56654063 -71.98806886 367.60910094 -70.9140625 366.64453125 C-68.507393 364.57676011 -65.98470556 362.70442181 -63.4375 360.8125 C-58.9257409 357.45962166 -54.47409311 354.04594769 -50.0625 350.5625 C-44.00330421 345.78123465 -37.9052344 341.05448524 -31.77636719 336.36279297 C-29.8607114 334.89314061 -27.94979002 333.41745936 -26.0390625 331.94140625 C-18.45964207 326.09897318 -10.81815791 320.3569784 -3.0625 314.75 C-2.28688721 314.18885498 -1.51127441 313.62770996 -0.7121582 313.04956055 C4.78366132 309.09826539 8.01187451 307.47488074 15 308 C19.02049169 309.09649773 21.30981032 310.8294193 24 314 C25.41992074 318.25976223 25.96178248 321.78279349 24.1171875 326.03515625 C19.93779222 332.92990714 13.83993006 338.0247119 7.87646484 343.32177734 C4.50326587 346.33860921 1.18975449 349.41927565 -2.125 352.5 C-2.76429443 353.08740967 -3.40358887 353.67481934 -4.06225586 354.2800293 C-9.83611293 359.25911026 -9.83611293 359.25911026 -12.3125 366.125 C-12.28987808 369.12782652 -12.28987808 369.12782652 -10 371 C-3.68317694 372.74257188 2.70403269 373.4990153 9.19921875 374.24560547 C12.60132798 374.64928619 15.84814693 375.12000403 19.125 376.125 C27.99270278 378.1273845 36.33754157 377.41467731 45 375 C62.02167412 370.29091102 62.02167412 370.29091102 68.9453125 374.05859375 C72.26639616 377.25632287 73.18313575 380.24145495 73.3125 384.6875 C73.21733838 388.58352858 73.00449129 392.00906015 70.7578125 395.34765625 C60.55945791 404.93410957 42.59003724 409.46015915 29.07714844 409.24682617 C21.02943372 408.86300483 13.07113655 407.44837825 5.125 406.1875 C3.39727232 405.92293256 1.66940786 405.65925675 -0.05859375 405.39648438 C-7.96590843 404.18139297 -15.83632924 402.86526796 -23.6875 401.328125 C-29.21573591 400.27232998 -34.49746887 399.50108845 -40.125 399.5625 C-40.81335938 399.54251953 -41.50171875 399.52253906 -42.2109375 399.50195312 C-51.51066944 399.51082692 -57.65368401 406.99697888 -64 413 C-66.67826148 415.68948325 -69.33742359 418.39349256 -71.96875 421.12890625 C-74 423 -74 423 -76 423 C-76.33 423.99 -76.66 424.98 -77 426 C-78.48828125 427.21875 -78.48828125 427.21875 -80.3125 428.5 C-85.53625732 432.84238263 -87.42175236 438.68876123 -88.30859375 445.30078125 C-88.44506146 449.94871107 -87.83422834 454.49610895 -87.27441406 459.10424805 C-86.36146474 466.65882244 -85.73739253 474.13681094 -85.625 481.75 C-85.59921875 482.58321777 -85.5734375 483.41643555 -85.546875 484.27490234 C-85.52933737 489.65566684 -86.32126645 492.80649486 -90 497 C-93.97574855 499.93174878 -96.83303173 500.3782929 -101.73046875 500.38818359 C-102.71438095 500.39606903 -102.71438095 500.39606903 -103.71817017 500.40411377 C-105.87485952 500.41725989 -108.03080383 500.40859555 -110.1875 500.3984375 C-111.69295391 500.4004598 -113.19840686 500.40337254 -114.70385742 500.40713501 C-117.85442458 500.41155104 -121.00473606 500.40515079 -124.15527344 500.39111328 C-128.18709161 500.37402155 -132.21831061 500.38386664 -136.25010681 500.40183067 C-139.35742684 500.41268818 -142.46460558 500.40921321 -145.57192993 500.4014473 C-147.05823844 500.39945071 -148.54455991 500.40188551 -150.03085327 500.40888596 C-152.11075662 500.4165332 -154.18969918 500.40485214 -156.26953125 500.38818359 C-157.45135986 500.38579681 -158.63318848 500.38341003 -159.85083008 500.38095093 C-163.32301868 499.96092486 -165.19844253 499.05190446 -168 497 C-171.89705531 491.96554011 -172.58409293 486.67508082 -172.375 480.5 C-172.36138428 479.65888672 -172.34776855 478.81777344 -172.33374023 477.95117188 C-172.11213325 468.412803 -171.42410438 458.88932956 -170.78710938 449.37133789 C-169.9555174 436.89093713 -169.41953999 424.4120527 -169.08789062 411.90771484 C-169.01022316 409.33821621 -168.89628363 406.77425187 -168.765625 404.20703125 C-168.71921875 402.90121094 -168.6728125 401.59539062 -168.625 400.25 C-168.55152344 398.67992187 -168.55152344 398.67992187 -168.4765625 397.078125 C-169.85569494 388.96800288 -175.7417787 384.02557086 -181.9375 379.1875 C-182.68604248 378.58711914 -183.43458496 377.98673828 -184.20581055 377.36816406 C-186.46028583 375.56534896 -188.72765814 373.78021984 -191 372 C-192.26826316 371.00134525 -193.53649459 370.00265021 -194.8046875 369.00390625 C-196.54685255 367.63448126 -198.29049552 366.26714295 -200.03857422 364.90527344 C-203.77677702 361.98833431 -207.43415251 358.99120084 -211.0625 355.9375 C-215.15564089 352.49751989 -219.31241901 349.17864109 -223.5625 345.9375 C-225.70955177 344.29325106 -227.85511905 342.64707943 -230 341 C-230.53141602 340.59330078 -231.06283203 340.18660156 -231.61035156 339.76757812 C-233.14495019 338.58566298 -234.66648143 337.38684101 -236.1875 336.1875 C-237.06792969 335.50042969 -237.94835937 334.81335938 -238.85546875 334.10546875 C-242.31819587 330.70581499 -242.92133035 327.82603128 -243.375 323.0625 C-243.26168312 318.78074062 -241.80341422 316.27064992 -239 313 C-236.17128693 310.77743973 -232.96456613 310.40224193 -229.390625 310.48828125 C-225.14728468 311.39657795 -221.75285897 313.81040042 -218.109375 316.08984375 C-215.29014279 317.82175902 -212.48743112 319.27395562 -209.5 320.6875 C-201.93842708 324.38315617 -194.82172713 328.82419667 -187.63671875 333.1953125 C-186.09156012 334.13089288 -184.54601423 335.06583414 -183 336 C-182.3294458 336.40895508 -181.6588916 336.81791016 -180.96801758 337.23925781 C-176.71979727 339.76714305 -173.98438693 340.75236029 -169 340 C-165.6245732 337.63491768 -165.04047691 336.2004395 -164.21472168 332.11134338 C-164.0661312 330.54931465 -163.93782188 328.98526894 -163.82617188 327.42016602 C-163.75249138 326.57857469 -163.67881088 325.73698336 -163.60289764 324.86988926 C-163.38044421 322.24777046 -163.1861738 319.62492465 -163 317 C-162.94188141 316.21592144 -162.88376282 315.43184288 -162.82388306 314.62400436 C-162.48519048 309.99330955 -162.19309439 305.36083361 -161.9236908 300.72562981 C-161.7759313 298.18592536 -161.62252043 295.64661032 -161.46789551 293.10731506 C-161.08546583 286.80971103 -160.71181415 280.51159354 -160.33856201 274.21343994 C-160.02078563 268.85620869 -159.69920945 263.49923064 -159.37278748 258.142519 C-159.22408756 255.67829667 -159.0807059 253.21380603 -158.93762207 250.74925232 C-158.46728202 242.87417028 -157.86116186 235.02959749 -157.00976562 227.18579102 C-156.93066704 226.44550376 -156.85156845 225.7052165 -156.77007294 224.9424963 C-155.37035343 212.66396763 -150.36448233 202.10730772 -144.375 191.4375 C-143.93897461 190.65721436 -143.50294922 189.87692871 -143.05371094 189.07299805 C-139.47319522 182.72343863 -135.6641031 176.5417783 -131.76171875 170.38671875 C-128.46221354 165.1733305 -125.26444672 159.89866728 -122.0625 154.625 C-121.16954224 153.1555896 -121.16954224 153.1555896 -120.25854492 151.65649414 C-119.0731908 149.70569651 -117.88804796 147.75477048 -116.703125 145.80371094 C-114.15985372 141.61693809 -111.61306546 137.43233284 -109.0625 133.25 C-108.44483765 132.23413818 -108.44483765 132.23413818 -107.81469727 131.19775391 C-105.48924719 127.38653483 -103.11611655 123.61053082 -100.70703125 119.8515625 C-98.04983124 115.68865177 -95.45981748 111.48955122 -92.9140625 107.2578125 C-92.56373459 106.67608276 -92.21340668 106.09435303 -91.85246277 105.49499512 C-90.41812696 103.11140249 -88.98494233 100.7271542 -87.55761719 98.33935547 C-83.60569067 91.73409607 -79.57102973 85.19184885 -75.2734375 78.8046875 C-74.57395996 77.76038574 -73.87448242 76.71608398 -73.15380859 75.64013672 C-70.49417113 72.37995541 -67.98249063 70.21725925 -63.71875 69.75 C-59.77930484 70.19388114 -57.34058159 70.78453001 -53.9375 72.9375 C-51.16491465 77.31997362 -51.31823102 80.92490285 -52 86 C-53.31692857 89.92840983 -55.15305111 93.5166563 -57.0625 97.1875 C-58.16840946 99.40082152 -59.27385665 101.61437405 -60.37890625 103.828125 C-60.96816895 104.99150391 -61.55743164 106.15488281 -62.16455078 107.35351562 C-65.03025417 113.02405994 -67.78598508 118.74833767 -70.54904175 124.46939087 C-71.50168934 126.44099626 -72.4568628 128.41136294 -73.41235352 130.3815918 C-79.01021093 141.94052672 -84.40242076 153.58919703 -89.74560547 165.26806641 C-91.99916047 170.17606182 -94.29781406 175.06278561 -96.59765625 179.94921875 C-97.55590311 182.03387277 -98.47494993 184.13687726 -99.359375 186.25390625 C-100.59150078 189.17484225 -102.00804231 191.95858002 -103.48046875 194.765625 C-110.81988981 209.32285616 -113.69042062 223.67527692 -111 240 C-109.18275311 242.2183462 -109.18275311 242.2183462 -106.61328125 242.3359375 C-103.33993789 241.91514897 -102.42584662 241.00942819 -100.1875 238.625 C-99.49527344 237.88765625 -98.80304688 237.1503125 -98.08984375 236.390625 C-95.37127043 233.28078038 -92.79917099 230.07677819 -90.25390625 226.82421875 C-87.63782393 223.54618145 -84.92536453 220.36387619 -82.1875 217.1875 C-81.67695068 216.59461182 -81.16640137 216.00172363 -80.64038086 215.39086914 C-79.60379128 214.18724 -78.56708874 212.98370814 -77.53027344 211.78027344 C-73.31983895 206.88198239 -69.1534599 201.94662251 -65 197 C-64.18273437 196.02933594 -63.36546875 195.05867187 -62.5234375 194.05859375 C-60.31206144 191.39976534 -58.14745111 188.71057919 -56 186 C-55.43410156 185.32324219 -54.86820313 184.64648438 -54.28515625 183.94921875 C-43.76727661 170.1662467 -42.64493534 148.15209917 -39.30874634 131.50085449 C-38.12748744 125.60988838 -36.90719848 119.72757964 -35.67675781 113.84667969 C-33.85788427 105.15116668 -32.07277232 96.45108054 -30.3984375 87.7265625 C-30.26516556 87.03263901 -30.13189362 86.33871552 -29.99458313 85.62376404 C-29.35437089 82.28384751 -28.71959124 78.94306685 -28.09155273 75.60083008 C-26.81575124 68.88846083 -25.38910172 62.26269415 -23.64892578 55.65454102 C-22.74888402 51.97276749 -22.18311554 48.2605757 -21.58984375 44.51953125 C-19.79327765 33.79962358 -17.655022 23.10418646 -15 12.5625 C-14.71125 11.40878906 -14.4225 10.25507813 -14.125 9.06640625 C-11.34188665 1.48048966 -7.81961673 -0.53014351 0 0 Z " fill="#06C691" transform="translate(493,125)"/>
<path d="M0 0 C5.93585672 3.33125187 9.16956474 7.82613536 12.0625 13.875 C13.64226099 21.77380497 13.13964109 27.69391568 9.171875 34.8046875 C5.70768219 39.92804634 0.75801219 43.54128173 -5.3125 45 C-12.7174953 45.8375305 -19.2499481 45.64143759 -25.3125 41 C-31.30738132 35.63428444 -33.69362625 30.86784002 -34.5234375 23 C-34.85908906 16.39024618 -32.80190844 11.30181304 -29.25 5.8125 C-21.50714468 -2.62374535 -10.28687675 -4.53424552 0 0 Z " fill="#0C8EF7" transform="translate(233.3125,377)"/>
<path d="M0 0 C0 0.66 0 1.32 0 2 C0.70125 2.185625 1.4025 2.37125 2.125 2.5625 C6.78406269 4.89203135 9.86761125 8.68900254 12.1484375 13.34375 C14.37100519 20.27652995 13.94824823 27.89418069 10.9375 34.5 C7.75753842 40.03349247 3.88997633 42.62069312 -1.75 45.3125 C-9.747595 47.00429894 -16.52648764 46.7146215 -23.765625 42.703125 C-28.12934287 39.37693446 -30.58369075 34.83261851 -33 30 C-33.63317836 22.09046047 -34.15314834 14.45226137 -29 8 C-21.37724658 -0.3172342 -11.00298858 -3.66766286 0 0 Z " fill="#088EF9" transform="translate(564,318)"/>
<path d="M0 0 C6.10145124 2.74328816 9.6553105 7.70695539 13.328125 13.09375 C15.61307711 19.69472275 15.37070808 27.06651779 12.55859375 33.49609375 C9.5937924 38.45139777 5.10568168 42.91689544 -0.40234375 44.90625 C-7.61392427 46.37746497 -15.38921427 46.5441631 -21.8359375 42.66796875 C-27.36206196 38.39089981 -31.02035103 33.20038684 -32.546875 26.34375 C-33.41111269 19.39383859 -32.25743087 13.95113176 -27.96484375 8.23828125 C-20.31975428 -0.90584538 -11.60747827 -2.99088397 0 0 Z " fill="#0A8EF8" transform="translate(329.546875,219.65625)"/>
<path d="M0 0 C4.95257922 4.37821008 8.34493078 9.69110027 9.3515625 16.3125 C9.75789276 23.15595704 7.86515114 28.38148456 4 34 C-0.25380539 38.68984467 -4.64688103 41.63077051 -11.05078125 42.3359375 C-19.03016343 42.43149896 -24.80779376 41.9577428 -30.74609375 36.3515625 C-36.72735571 29.78221484 -37.7166242 23.51703536 -37.44140625 14.7421875 C-36.68881725 8.36183121 -33.88896686 4.57211243 -29.18359375 0.3828125 C-20.64916893 -6.14242808 -8.8662743 -5.87628316 0 0 Z " fill="#088EF9" transform="translate(227,180)"/>
<path d="M0 0 C5.52648344 3.32329574 9.40427874 8.26611745 11.33203125 14.40234375 C11.98149622 21.14159712 12.34566848 27.66857627 8.33203125 33.40234375 C7.55859375 34.67078125 7.55859375 34.67078125 6.76953125 35.96484375 C1.52804691 41.20632809 -4.39189972 43.70252738 -11.79296875 43.96484375 C-19.11555941 43.60810215 -24.01514628 41.48007156 -28.98046875 36.08984375 C-33.40550339 30.39879103 -35.25274147 25.07938907 -35.0234375 17.89453125 C-34.44891703 13.86657454 -32.8495234 10.79249487 -30.66796875 7.40234375 C-29.83265625 6.07203125 -29.83265625 6.07203125 -28.98046875 4.71484375 C-20.48570007 -3.77992493 -10.80255118 -4.78034154 0 0 Z " fill="#078EFA" transform="translate(117.66796875,410.59765625)"/>
<path d="M0 0 C5.18490494 3.08677604 8.96926147 7.764432 12.0625 12.875 C13.54336586 19.78570736 13.19508425 26.01775886 10.03125 32.390625 C6.83283573 37.1882464 2.04110088 41.41538563 -3.375 43.5 C-10.76147321 44.36418098 -17.64677781 44.61830821 -23.76171875 39.99609375 C-27.95631238 36.10619215 -32.01816806 31.87940841 -32.640625 25.984375 C-32.591807 17.44122534 -32.22526121 10.49402308 -26.0546875 4.04296875 C-18.84894963 -2.57625557 -9.14295421 -3.99224511 0 0 Z " fill="#0A8FF8" transform="translate(303.375,322.5)"/>
<path d="M0 0 C6.37980746 2.44096981 10.77147673 6.8438585 14.62109375 12.421875 C16.8596428 18.57475843 16.74746346 26.84459078 14.05859375 32.796875 C11.1172375 37.78574779 7.05042146 41.17896315 1.93359375 43.796875 C-4.37142211 44.98650063 -10.70448136 45.34576723 -16.81640625 43.234375 C-22.15552382 39.45792598 -25.47896799 35.22175153 -28.37890625 29.421875 C-29.68738382 14.13137996 -29.68738382 14.13137996 -25.08203125 8.0703125 C-17.7144596 0.93931425 -10.18492619 -2.47515448 0 0 Z " fill="#098FF9" transform="translate(533.37890625,191.578125)"/>
<path d="M0 0 C4.57481037 2.65301503 7.27585795 6.06218505 9.9375 10.625 C11.44097701 16.63890804 11.71912545 22.22223236 8.5 27.6875 C4.65596892 32.9984733 0.87675374 36.18015062 -5.5 37.875 C-8.74509494 38.75914263 -10.19899454 39.21752143 -12.75 41.5 C-14.14033579 43.95982486 -15.22439171 46.33884138 -16.3125 48.9375 C-17.99992837 52.87045563 -19.45497235 55.32165218 -23.375 57.375 C-27.34631876 57.45604732 -28.85255834 56.8438579 -31.8125 54.1875 C-33.375 51.375 -33.375 51.375 -33.4375 48.6875 C-32.47198881 45.67737688 -31.29857848 43.27259785 -29.8125 40.5 C-27.32782752 35.7597891 -26.80697727 32.67654544 -27.375 27.375 C-27.705 26.715 -28.035 26.055 -28.375 25.375 C-28.52477039 23.12844413 -28.59650174 20.87636232 -28.625 18.625 C-28.65078125 17.41328125 -28.6765625 16.2015625 -28.703125 14.953125 C-28.26975385 10.22731582 -26.87787003 7.00424774 -23.65625 3.51171875 C-23.0684375 3.03347656 -22.480625 2.55523437 -21.875 2.0625 C-21.2871875 1.57136719 -20.699375 1.08023438 -20.09375 0.57421875 C-14.56556507 -3.28294664 -5.91868478 -2.71695816 0 0 Z " fill="#07C692" transform="translate(534.375,48.625)"/>
<path d="M0 0 C4.19960819 3.18499697 7.20161015 7.43686169 8.859375 12.41015625 C9.46431096 18.41298234 8.847448 23.05223224 5.859375 28.41015625 C2.61417305 32.30439859 -0.9891863 34.68020255 -5.37109375 37.1015625 C-8.38381729 39.32951479 -9.01293465 41.61672989 -9.59765625 45.25 C-9.71496094 46.27222656 -9.83226562 47.29445312 -9.953125 48.34765625 C-10.58745794 52.37493283 -11.02708584 54.24615524 -13.390625 57.66015625 C-16.70488592 59.76923138 -18.28644929 60.1481899 -22.140625 59.41015625 C-24.515625 57.91015625 -24.515625 57.91015625 -26.140625 55.41015625 C-26.66467158 49.99500825 -25.85347734 46.54871328 -24.140625 41.41015625 C-23.44655089 35.26264274 -24.32812021 32.26272695 -27.94921875 27.26953125 C-31.10226595 22.34871005 -30.72099074 16.03398198 -30.140625 10.41015625 C-27.45718497 4.83685772 -23.17513924 1.13244812 -17.828125 -1.90234375 C-11.46084594 -3.53118258 -5.789621 -3.23060852 0 0 Z " fill="#07C693" transform="translate(435.140625,116.58984375)"/>
<path d="M0 0 C5.10204904 3.43407147 8.31576158 7.09570353 10 13 C10.93459145 20.62931794 10.82719434 27.73207381 6 34 C2.02903492 38.24294899 -2.2547564 40.69770685 -8.05078125 41.3359375 C-14.81467738 41.41694224 -20.59397692 41.43539621 -26 37 C-32.06927871 30.3850186 -33.3665899 25.21548001 -33.27734375 16.30078125 C-32.75725436 10.11098496 -30.52710317 6.56181006 -26.25 2.1875 C-17.67762011 -3.58237108 -9.40208951 -4.7489169 0 0 Z " fill="#0A8EF7" transform="translate(552,385)"/>
<path d="M0 0 C4.78832435 2.89765551 8.09878471 7.01721905 10.875 11.8125 C12.72277492 19.57315467 11.55592149 26.55265848 7.5 33.4375 C2.29114262 39.56157961 -2.92877858 42.02193442 -10.9375 42.75 C-18.22056981 42.11113423 -23.07035148 39.73313731 -28.0234375 34.31640625 C-32.61570119 28.47281145 -33.29935939 22.59795879 -32.5 15.4375 C-31.1936972 8.89421753 -27.66609096 4.54815302 -22.5 0.4375 C-16.47082662 -3.48604016 -6.39154479 -2.88610453 0 0 Z " fill="#0B8FF8" transform="translate(240.5,312.5625)"/>
<path d="M0 0 C5.75070545 3.205011 9.60552611 7.75407834 11.6875 14 C12.42659144 21.03192709 12.23779034 26.95441351 8.38671875 33.0234375 C4.28749082 37.79173481 -1.36397891 41.48097643 -7.66015625 42.30859375 C-15.29731039 42.67122121 -20.46362115 40.9952587 -26.3125 36 C-31.19504168 30.14094999 -32.82963147 24.28319438 -32.70703125 16.7265625 C-31.82656278 10.64174083 -28.64089975 6.03988949 -24.07421875 2.0390625 C-16.24616713 -3.27951802 -8.63775995 -3.7943983 0 0 Z " fill="#0A8FF8" transform="translate(173.3125,224)"/>
<path d="M0 0 C4.87672751 2.85912091 8.48002481 7.10060869 10.5625 12.375 C11.39682426 19.99808906 11.86701771 27.54053324 6.984375 33.86328125 C1.70048731 39.48104097 -3.16316265 41.43303851 -10.8125 41.75 C-16.16455586 41.61928493 -20.18790324 40.7152944 -24.4375 37.375 C-30.61970516 30.78784691 -31.86135226 25.40321499 -31.78515625 16.48828125 C-31.10665296 10.41224619 -28.24329506 6.13565018 -23.9375 1.9375 C-16.75469972 -2.55175018 -7.85361141 -3.58339684 0 0 Z " fill="#088FF9" transform="translate(438.4375,416.625)"/>
<path d="M0 0 C5.47300684 3.2391265 9.93609659 7.70766442 12.0625 13.8125 C13.14519732 21.9688198 11.76502179 27.66219868 7.3125 34.5 C1.92784703 40.03422666 -1.83949406 41.0947013 -9.5 41.3125 C-16.74062672 41.37178865 -20.19996892 39.10438648 -25.625 34.5625 C-29.75953176 29.64575953 -31.52941511 24.24624492 -31.21484375 17.81640625 C-30.29239094 11.15135992 -27.61237995 6.93167438 -22.8515625 2.2578125 C-16.59090908 -2.46961967 -7.22329867 -2.79406718 0 0 Z " fill="#0C8EF6" transform="translate(485.9375,378.1875)"/>
<path d="M0 0 C5.25289702 2.81250664 8.51980517 6.56556104 10.37109375 12.26953125 C11.24260822 19.61660091 10.93668011 26.23343394 6.37109375 32.26953125 C2.65764311 36.15177511 -1.24660114 39.0325319 -6.65234375 39.5703125 C-14.50803231 39.59777994 -19.27498135 39.23346488 -25.31640625 33.89453125 C-30.19101809 28.36118808 -32.0202542 23.81220019 -31.91015625 16.421875 C-31.09770187 10.20434218 -27.38408442 5.16013157 -22.62890625 1.26953125 C-14.77010816 -3.78729031 -8.5216492 -3.67066472 0 0 Z " fill="#0B8FF7" transform="translate(302.62890625,387.73046875)"/>
<path d="M0 0 C5.66469452 3.60395017 9.20750325 7.43891601 11.3515625 13.87109375 C11.90661043 20.57436496 11.75541812 26.00237716 8.3515625 31.87109375 C4.45186942 36.38652785 0.86026988 39.56237255 -5.171875 40.3046875 C-18.40324269 40.31810674 -18.40324269 40.31810674 -23.6484375 35.87109375 C-29.01375752 29.65861793 -30.1224677 24.42717741 -30.05859375 16.2421875 C-29.34222488 10.35431765 -26.45904689 6.29077905 -22.01953125 2.46875 C-15.70389791 -1.97910205 -7.15555174 -3.05008031 0 0 Z " fill="#0A8FF8" transform="translate(380.6484375,188.12890625)"/>
<path d="M0 0 C5.05831416 2.79174716 8.97469213 7.86595985 11.14453125 13.18359375 C12.17957558 20.15208986 10.94976933 26.25913077 7.14453125 32.18359375 C3.306657 36.49463058 -1.17573568 38.82259344 -6.87109375 39.58984375 C-13.78901456 39.79036319 -18.53249849 39.31577872 -24.04296875 34.9296875 C-29.23293286 29.92987294 -30.1155202 26.33095094 -30.41796875 19.24609375 C-30.19194528 11.90422798 -28.43319033 7.74342672 -23.29296875 2.62890625 C-16.51701448 -3.36781328 -8.18077863 -2.99436556 0 0 Z " fill="#0A8EF6" transform="translate(526.85546875,258.81640625)"/>
<path d="M0 0 C4.87898554 2.88887301 8.57451244 6.59463108 10.390625 12.04296875 C11.20274196 20.04077877 11.40319463 26.79151888 6.20703125 33.265625 C1.29610649 38.07093847 -3.21827286 39.29390779 -10.046875 39.66796875 C-16.63145822 39.43880692 -20.95297097 37.71944349 -25.609375 33.04296875 C-29.75739748 27.97065865 -30.29733478 22.41760701 -30.0546875 16.01171875 C-29.14571104 9.95187571 -26.21383054 5.12425449 -21.734375 0.98046875 C-15.69636283 -2.82812354 -6.49598264 -2.3825086 0 0 Z " fill="#0A8EF6" transform="translate(174.609375,402.95703125)"/>
<path d="M0 0 C4.99264199 2.96379684 8.41475102 6.474171 10.8359375 11.80078125 C12.39678314 18.5644457 12.31522816 24.12461902 8.85546875 30.26171875 C5.70319324 34.70400239 1.72572276 37.29944701 -3.4140625 39.05078125 C-9.33484933 39.98375372 -14.19518776 39.6843813 -19.3515625 36.48828125 C-24.22966778 32.80570446 -26.48384532 28.84143278 -28.4140625 23.05078125 C-28.90731 15.65206878 -27.48185551 10.95686872 -23.1015625 4.80078125 C-16.92953353 -1.51478328 -8.37325768 -3.29239744 0 0 Z " fill="#0A8FF8" transform="translate(626.4140625,326.94921875)"/>
<path d="M0 0 C5.18905886 2.87199318 8.77226977 6.57410601 10.89453125 12.15234375 C11.92161757 17.44773141 11.4776718 21.79859088 8.83203125 26.52734375 C5.1496457 31.65785845 0.90306397 33.86276193 -5.23046875 34.90234375 C-7.81767652 35.45674542 -8.84045769 35.84316418 -10.58203125 37.875 C-11.83633104 39.93343677 -12.99018435 42.01573664 -14.10546875 44.15234375 C-16.94996636 48.86047772 -16.94996636 48.86047772 -19.9921875 49.62890625 C-23.90521919 49.90375875 -25.58820772 49.58129192 -28.66796875 47.02734375 C-30.10546875 44.15234375 -30.10546875 44.15234375 -30.23046875 41.46484375 C-29.15020875 38.2840782 -27.96562285 36.53429962 -26.04296875 33.83984375 C-22.87381428 28.91420036 -22.78946905 25.17641662 -23.04296875 19.52734375 C-23.27727872 13.77893926 -23.4462163 9.27402026 -19.71875 4.6015625 C-14.10768791 -0.43888311 -7.23698767 -2.91359244 0 0 Z " fill="#07C693" transform="translate(550.10546875,126.84765625)"/>
<path d="M0 0 C5.00760205 3.773459 8.38213138 8.41055112 9.58984375 14.63671875 C9.90104003 20.97267511 7.87103165 26.38381198 4.0625 31.3125 C-0.68233703 35.02585072 -5.394088 37.22307375 -11.375 38.0625 C-18.62879095 37.00740313 -23.15156565 33.80421099 -27.68359375 28.1484375 C-31.28754853 23.0854422 -30.38541859 16.50001998 -29.8125 10.5625 C-27.78571743 4.83159757 -24.16322055 1.40862795 -18.8125 -1.4375 C-12.25362137 -3.41600471 -5.97186871 -3.61507771 0 0 Z " fill="#0A8FF7" transform="translate(268.8125,217.4375)"/>
<path d="M0 0 C4.12625542 4.22046216 5.74705278 8.41993834 6.3125 14.1875 C5.8019494 20.41621729 3.53642169 25.14841489 -0.4375 29.9375 C-6.60904767 34.90484325 -13.37386427 34.76934535 -21 34 C-25.92265695 31.7144807 -28.81049249 28.28305294 -32 24 C-33.91923356 18.24229932 -34.18227905 11.25126739 -32.09375 5.5078125 C-29.1929296 0.58013682 -25.48816987 -2.60473205 -20.125 -4.75 C-12.09385622 -5.69484044 -6.76621029 -4.65031635 0 0 Z " fill="#0C8FF6" transform="translate(232,261)"/>
<path d="M0 0 C6.22922603 2.41357472 10.54333499 6.72250373 13.25 12.8125 C14.44570055 17.89422733 14.63049303 22.0691151 13 27.0625 C9.47425879 32.24093241 4.29149125 37.58441447 -2 39 C-8.34573074 39.62417024 -12.72682828 38.6584746 -18 35 C-23.04004459 30.45758006 -25.00374422 25.27972686 -25.4375 18.625 C-25.28769505 12.69272405 -22.55504089 8.51755863 -18.40234375 4.42578125 C-12.52631643 -0.61287609 -7.57486481 -0.84481575 0 0 Z " fill="#0D90F6" transform="translate(177,292)"/>
<path d="M0 0 C5.30920608 3.067984 8.51103002 7.24012131 10.45703125 13.078125 C11.23944682 19.5811528 10.31384667 24.72580972 6.45703125 30.078125 C2.2709316 34.54588797 -0.99715498 36.75139594 -7.12890625 37.31640625 C-13.16432769 37.4770127 -16.87065473 37.30545673 -21.54296875 33.078125 C-26.06081919 28.4719367 -28.55459248 24.29471995 -28.98046875 17.828125 C-28.81400424 11.58570582 -26.06697211 7.10269885 -22.14453125 2.40234375 C-16.35821397 -2.81121624 -6.99290955 -2.53506399 0 0 Z " fill="#088EF9" transform="translate(604.54296875,431.921875)"/>
<path d="M0 0 C3.74375351 2.59280226 5.86347862 5.27645322 7.3125 9.6015625 C8.28001686 16.19395677 7.74818143 21.87542678 4.3125 27.6015625 C-0.05833471 32.19277543 -4.51982583 34.88146989 -10.875 35.1015625 C-17.14893044 34.96736078 -21.20676863 32.94285202 -25.6875 28.6015625 C-29.68412919 23.64358196 -30.32431682 18.39226525 -30.07421875 12.1484375 C-29.51513552 8.4663944 -28.13110688 6.37538653 -25.6875 3.6015625 C-24.90375 2.6940625 -24.12 1.7865625 -23.3125 0.8515625 C-16.01851901 -5.4004212 -7.95913711 -4.34355349 0 0 Z " fill="#088FF9" transform="translate(225.6875,446.3984375)"/>
<path d="M0 0 C5.77245567 2.5715639 9.08205359 6.14122347 12.140625 11.67578125 C13.80265641 18.02171937 13.23889218 22.80796194 10.10546875 28.47265625 C7.43738018 32.29120502 4.28558013 34.81496287 -0.171875 36.30078125 C-6.981566 37.00697143 -12.89899814 37.11471857 -18.546875 32.90234375 C-22.97949625 28.53365454 -24.40237928 23.94695843 -24.734375 17.80078125 C-24.49380613 12.19785463 -22.99735592 8.4048166 -19.171875 4.30078125 C-13.39936571 -0.84428137 -7.42595473 -2.39073003 0 0 Z " fill="#0D8FF5" transform="translate(129.171875,263.69921875)"/>
<path d="M0 0 C4.82347 2.54195827 8.03538945 6.1335121 9.74609375 11.265625 C10.31669824 17.54227441 10.0422025 22.73666839 6.74609375 28.265625 C2.05166171 33.17091805 -1.67074881 35.39691132 -8.56640625 35.578125 C-13.64896272 35.51785753 -16.38763954 34.76367583 -20.25390625 31.265625 C-25.51495108 25.77521582 -26.62587147 21.52308849 -26.52734375 14.0546875 C-25.99069895 8.58091056 -23.39278364 4.96847197 -19.31640625 1.328125 C-13.7827737 -2.28128543 -6.120827 -1.99430758 0 0 Z " fill="#098FF7" transform="translate(172.25390625,460.734375)"/>
<path d="M0 0 C4.88260126 2.40917825 7.99248907 6.32893799 9.90625 11.37890625 C10.89535914 16.90344268 10.64072161 21.81693323 7.96875 26.81640625 C4.42227137 31.69531894 -0.37946533 33.71980952 -6.20703125 34.75390625 C-11.27159105 35.06859734 -15.31591826 33.66359445 -19.09375 30.37890625 C-22.60718544 26.43113883 -25.43974444 22.54990204 -25.59375 17.12890625 C-24.61561805 9.7929166 -21.53611891 5.41629058 -15.96875 0.50390625 C-10.85141857 -1.49852779 -5.2795375 -1.56613146 0 0 Z " fill="#0A90F9" transform="translate(131.09375,318.62109375)"/>
<path d="M0 0 C5.06489759 2.53244879 8.50315808 5.90913369 11 11 C11.80952334 16.35306425 11.91177459 22.07278076 9.4375 27 C5.85869034 31.40468881 2.87222562 33.59504959 -2.6875 34.37890625 C-10.13949568 34.69278107 -13.76882897 32.88185525 -19.3125 27.9375 C-22.84722363 23.87911361 -22.33061538 19.06470662 -22.28125 13.94921875 C-21.77760029 8.66789193 -19.23312174 6.11281718 -15.4375 2.6875 C-10.67962975 -0.60641017 -5.6078806 -0.87934222 0 0 Z " fill="#078FFA" transform="translate(330,166)"/>
<path d="M0 0 C4.46904058 2.57989307 7.68627932 5.27601121 9.78515625 10.0859375 C10.51510053 15.54531244 10.73269804 21.05498795 8.22265625 26.0859375 C4.54071867 30.61755298 1.60152928 32.60556576 -4.0546875 33.5703125 C-9.69864035 33.94040777 -13.41614083 33.58888547 -17.83984375 29.8984375 C-22.04550934 25.82586259 -23.51351054 21.57015625 -23.71484375 15.7734375 C-23.61632962 10.55922525 -22.33855257 7.57514473 -18.9140625 3.6796875 C-13.60177722 -1.30286973 -6.79834907 -2.80566787 0 0 Z " fill="#0B8FF6" transform="translate(553.21484375,445.9140625)"/>
<path d="M0 0 C5.89069036 4.32519173 5.89069036 4.32519173 7.25 8.3125 C8.00363435 14.71293089 7.39914891 19.68901981 4.25 25.3125 C1.23036839 28.89831254 -0.90984508 30.09097656 -5.60546875 30.65625 C-11.53309408 30.93421602 -15.76309801 31.08621198 -20.4375 27.125 C-24.38948181 22.96501915 -25.60624654 20.12379364 -26.0625 14.375 C-25.89957416 9.55058475 -24.54431603 6.16315928 -21.1328125 2.64453125 C-14.66512714 -3.19859222 -7.80283658 -4.94814027 0 0 Z " fill="#0A8FF9" transform="translate(284.75,269.6875)"/>
<path d="M0 0 C3.83084349 2.61193874 6.65161815 5.67823629 8.75 9.875 C9.30713132 15.83201945 9.27180186 20.82708399 5.75 25.875 C1.79823897 29.84835535 -1.78787259 31.99001715 -7.4375 32.25 C-12.75067764 32.18066 -16.29795233 30.3539152 -20.25 26.875 C-24.31964957 21.66076149 -24.01519283 15.20523155 -23.25 8.875 C-21.24998573 4.39496804 -18.64722017 1.82563974 -14.2421875 -0.43359375 C-9.33991217 -2.13497166 -4.83006339 -1.67194502 0 0 Z " fill="#0990F7" transform="translate(501.25,327.125)"/>
<path d="M0 0 C3.65127136 2.92101709 6.89889331 6.30096607 7.4609375 11.0703125 C7.70940532 17.93184685 6.93871316 22.60810353 2.1875 27.75 C-2.66047421 31.35779476 -7.970642 31.6062984 -13.8125 30.75 C-18.79919007 28.25665497 -22.30925474 24.75649051 -24.8125 19.75 C-25.57885019 12.87797455 -24.93864152 8.32586692 -20.8125 2.75 C-14.65463909 -3.09996786 -7.66524002 -3.40677334 0 0 Z " fill="#0C8FF6" transform="translate(377.8125,139.25)"/>
<path d="M0 0 C5.36787898 1.88869816 8.45991584 4.91983169 11 10 C11.51472399 15.63664961 11.78613214 20.45484372 9.1875 25.5625 C8.1046875 26.7690625 8.1046875 26.7690625 7 28 C6.484375 28.598125 5.96875 29.19625 5.4375 29.8125 C1.65513273 32.93706426 -3.41513582 32.32431347 -8.046875 32.28515625 C-13.00812874 31.80609339 -15.62316549 29.56674272 -18.8125 25.9375 C-21.66470854 21.2838966 -21.59381196 16.28657589 -21 11 C-16.32085839 1.64171678 -9.83628378 -0.83230093 0 0 Z " fill="#0A8FF7" transform="translate(208,497)"/>
<path d="M0 0 C4.28590933 2.79515826 7.22425239 5.92275717 8.875 10.875 C9.50666497 16.21826434 9.28247499 20.79942167 6.265625 25.3671875 C2.71314578 29.21903295 -1.95294713 31.05061416 -7.125 31.4375 C-11.93418958 31.16241815 -15.53977217 28.98219745 -19.125 25.875 C-22.73279476 21.02702579 -22.9812984 15.716858 -22.125 9.875 C-17.62264693 0.87029386 -9.81436621 -3.53317184 0 0 Z " fill="#0990F9" transform="translate(262.125,489.125)"/>
<path d="M0 0 C4.42484878 2.21242439 7.19476657 4.94799616 10 9 C11.54033038 13.62099115 11.5385555 17.44769296 9.9375 22.0625 C7.40650206 25.89981945 5.14854299 28.87478149 1 31 C-4.66083782 32.00164959 -9.35243954 31.78042338 -14.5625 29.3125 C-17.8320199 26.21064779 -19.75850523 23.61649202 -20.43359375 19.09765625 C-20.44699993 8.68105256 -20.44699993 8.68105256 -16 4 C-11.0689115 -0.46146102 -6.38623612 -1.02970257 0 0 Z " fill="#0B90F7" transform="translate(580,229)"/>
<path d="M0 0 C3.956033 2.20624917 6.30445294 4.44863234 8 8.6875 C8.66116558 14.30740741 8.66564167 18.42903881 5.5703125 23.234375 C2.67298049 26.69745823 -0.5519748 28.44105672 -4.9921875 29.19140625 C-10.38070571 29.47262521 -13.55925123 28.40457037 -17.75 24.8125 C-21.20028564 20.88631289 -22.16550345 17.2611244 -22.09765625 12.0078125 C-21.29629304 6.94751899 -18.22849969 3.09120244 -14.4375 -0.1875 C-9.23833975 -2.12207125 -5.14101584 -1.62798835 0 0 Z " fill="#0C8FF7" transform="translate(183.75,348.1875)"/>
<path d="M0 0 C4.15733267 1.71715915 6.66556512 4.16485699 9 8 C10.21949027 12.48805602 10.39012351 15.91176075 8.8125 20.3125 C6.26381195 24.09158918 4.38073649 26.5397545 0 28 C-4.48820411 28.39557053 -8.62085015 28.50968581 -12.875 26.9375 C-16.5498442 23.58690676 -18.75736965 20.5193118 -19.234375 15.56640625 C-18.98852698 9.79775808 -17.447008 6.42746535 -13.47265625 2.27734375 C-9.61741198 -1.06659492 -4.83515916 -0.42011651 0 0 Z " fill="#098FF8" transform="translate(328,282)"/>
<path d="M0 0 C3.35725473 2.28967582 5.49440902 4.16595142 6.9921875 8.0234375 C7.69658101 12.98695454 7.52529457 16.93747866 5.3046875 21.4609375 C1.47405322 25.70569441 -1.24406916 27.19862903 -6.9453125 27.5234375 C-10.51134417 27.41714744 -12.69941108 27.00911824 -15.5078125 24.7734375 C-19.63452232 20.23405669 -20.62120572 16.70873007 -20.53125 10.63671875 C-19.60470278 6.01089721 -16.58105513 2.95395554 -13.0078125 0.0234375 C-8.55783833 -1.45988722 -4.29271375 -2.08789579 0 0 Z " fill="#098FF6" transform="translate(597.0078125,373.9765625)"/>
<path d="M0 0 C3.48350269 1.99753301 6.19448387 4.38896774 8 8 C8.54978069 13.0111158 8.56154513 16.89696493 6.25 21.4375 C2.43425331 25.78321151 0.00303728 27.52179586 -5.9765625 28.06640625 C-10.29566651 27.92465959 -13.15405221 25.73163052 -16.3125 23 C-19.16076526 19.62427821 -19.28617277 16.37796188 -19.21484375 12.05859375 C-18.76267517 7.72599661 -16.7400372 4.87879417 -14 1.625 C-9.39708274 -0.86824685 -5.1092679 -0.99265776 0 0 Z " fill="#0A90F8" transform="translate(599,488)"/>
<path d="M0 0 C3.61669092 2.14765973 6.7887142 4.88162827 8 9 C8.4850824 14.23888993 7.85631117 17.56779301 5 22 C0.44033168 26.11482263 -2.54889665 27.45513459 -8.60546875 27.42578125 C-12.72873858 26.69260603 -15.31438335 24.08526198 -18 21 C-19.97699486 17.04601028 -19.42609061 12.30960219 -19 8 C-17.13343392 3.81889199 -15.66988464 2.39935431 -11.75 0.0625 C-7.40559032 -1.16841607 -4.29204062 -1.43648418 0 0 Z " fill="#0F91F6" transform="translate(119,476)"/>
<path d="M0 0 C3.24394395 2.09054166 4.93384184 3.41646409 6.8125 6.8125 C7.48448647 11.39559872 7.40083828 15.38810206 5.625 19.6875 C0.6606555 25.50776596 0.6606555 25.50776596 -3.74609375 26.234375 C-8.30397135 26.45701217 -12.04290633 26.51032414 -15.75 23.625 C-19.11099334 19.74693076 -20.04563295 17.40141098 -20.5 12.3125 C-19.99972534 6.70942385 -17.34666136 3.45176619 -13.1875 -0.1875 C-8.48227445 -1.75590852 -4.66101184 -1.73645539 0 0 Z " fill="#0B8EF5" transform="translate(637.1875,400.1875)"/>
<path d="M0 0 C3.40654184 2.14760246 5.77828524 4.11272577 7 8 C7.686005 14.05971082 6.34258401 17.12937759 3 22 C-1.45577347 24.97051564 -5.77442606 24.62737491 -11 24 C-14.53214485 21.98163151 -16.80160052 19.92203467 -18 16 C-18.32948092 11.84854045 -18.43166602 9.11725323 -16.9375 5.25 C-12.09817895 -0.36985671 -7.03658499 -2.32089043 0 0 Z " fill="#0A90F9" transform="translate(100,361)"/>
<path d="M0 0 C3.36444825 2.34728948 4.36990434 3.99541277 5.6875 7.875 C6.61393846 14.36006919 6.61393846 14.36006919 4.4453125 17.90625 C1.97091791 20.90999268 0.43876126 22.62457958 -3.3125 23.875 C-7.50421681 24.27044498 -9.79325302 24.14460901 -13.5625 22.1875 C-16.48051255 19.73371672 -17.99153211 18.4493837 -19.3125 14.875 C-19.68767314 10.48326732 -19.49732969 6.60614885 -16.95703125 2.89453125 C-11.64697696 -2.22110458 -6.9098886 -2.34675462 0 0 Z " fill="#0890F8" transform="translate(571.3125,278.125)"/>
<path d="M0 0 C3.49996383 2.04164557 5.80555258 4.09089936 7 8 C7.47235231 12.88097387 7.52269768 15.02670088 5.1875 19.375 C2.89735405 22.12317514 1.31161645 23.80881523 -2.3046875 24.3359375 C-6.57276853 24.40080195 -9.24596584 24.43985326 -13 22.25 C-16.0103761 18.86332689 -16.89710076 17.13189161 -17.3125 12.5625 C-16.9747466 8.71211129 -16.30661867 7.04803181 -14 4 C-13.484375 3.236875 -12.96875 2.47375 -12.4375 1.6875 C-8.54312913 -1.00860291 -4.57984281 -0.74227598 0 0 Z " fill="#0691FA" transform="translate(303,135)"/>
<path d="M0 0 C3.00685874 1.61907778 5.2581079 3.05577368 7.375 5.75 C8.67051871 10.41386736 8.69344047 14.43975894 6.75 18.8125 C3.65120464 22.68599419 2.20655155 23.86377644 -2.875 24.4375 C-7.17744952 24.26090692 -9.74152479 22.87056149 -13 20 C-15.32396089 16.09152033 -15.61695986 12.47295896 -15 8 C-11.16333117 1.90005965 -7.39948412 -0.72543962 0 0 Z " fill="#0B8FF6" transform="translate(281,179)"/>
<path d="M0 0 C4.6 2.2 4.6 2.2 6 5 C6.5811138 12.08958838 6.5811138 12.08958838 4.125 15.9375 C0.92841342 19.04006933 -1.47158275 19.47161173 -5.95703125 19.40625 C-8 19 -8 19 -11 16.4375 C-13.31814592 12.45318669 -13.74130123 10.53017418 -13 6 C-9.27625236 0.29025362 -6.72149163 -0.45569435 0 0 Z " fill="#0C91F4" transform="translate(339,113)"/>
<path d="M0 0 C3.32920557 0.56667329 4.71584456 0.94921042 6.9375 3.5 C8.145144 7.57579849 8.38360971 9.58838451 6.5 13.4375 C3.41321993 15.92198152 1.7149418 16.18519654 -2.15625 15.91796875 C-4.0625 15.5 -4.0625 15.5 -6.5625 13.875 C-8.54448314 10.73686002 -8.73314058 9.15126535 -8.0625 5.5 C-5.57165752 2.13003665 -4.17661135 0.68189573 0 0 Z " fill="#0A92F4" transform="translate(451.0625,86.5)"/>
<path d="M0 0 C2 3 2 3 2 6 C0.68 6 -0.64 6 -2 6 C-2.33 5.01 -2.66 4.02 -3 3 C-2.01 2.01 -1.02 1.02 0 0 Z " fill="#0D8AF2" transform="translate(130,373)"/>
</svg>